<?xml version="1.0" encoding="UTF-8" standalone="no"?>
<!-- Created with Inkscape (http://www.inkscape.org/) -->

<svg
   xmlns:dc="http://purl.org/dc/elements/1.1/"
   xmlns:cc="http://creativecommons.org/ns#"
   xmlns:rdf="http://www.w3.org/1999/02/22-rdf-syntax-ns#"
   xmlns:svg="http://www.w3.org/2000/svg"
   xmlns="http://www.w3.org/2000/svg"
   xmlns:xlink="http://www.w3.org/1999/xlink"
   xmlns:sodipodi="http://sodipodi.sourceforge.net/DTD/sodipodi-0.dtd"
   xmlns:inkscape="http://www.inkscape.org/namespaces/inkscape"
   width="310.32486mm"
   height="14.507278mm"
   viewBox="0 0 1099.5763 51.403743"
   id="svg12585"
   version="1.1"
   inkscape:version="0.91 r13725"
   sodipodi:docname="hline.svg">
  <defs
     id="defs12587">
    <linearGradient
       inkscape:collect="always"
       xlink:href="#linearGradient12394-2-6"
       id="linearGradient6446"
       gradientUnits="userSpaceOnUse"
       gradientTransform="matrix(2.4960829,0,0,1,-1138.3514,-314.34371)"
       x1="94.716537"
       y1="660.99164"
       x2="297.14993"
       y2="660.99164" />
    <linearGradient
       id="linearGradient12394-2-6"
       inkscape:collect="always">
      <stop
         id="stop12416"
         offset="0"
         style="stop-color:#498296;stop-opacity:1" />
      <stop
         id="stop12418"
         offset="1"
         style="stop-color:#7abb9b;stop-opacity:1" />
    </linearGradient>
    <linearGradient
       inkscape:collect="always"
       xlink:href="#linearGradient12394-2-6"
       id="linearGradient13249"
       gradientUnits="userSpaceOnUse"
       gradientTransform="matrix(2.4960829,0,0,1,-434.0657,-314.3437)"
       x1="94.716537"
       y1="660.99164"
       x2="297.14993"
       y2="660.99164" />
  </defs>
  <sodipodi:namedview
     id="base"
     pagecolor="#ffffff"
     bordercolor="#666666"
     borderopacity="1.0"
     inkscape:pageopacity="0.0"
     inkscape:pageshadow="2"
     inkscape:zoom="0.7"
     inkscape:cx="702.80153"
     inkscape:cy="-84.560706"
     inkscape:document-units="px"
     inkscape:current-layer="layer1"
     showgrid="false"
     fit-margin-top="0"
     fit-margin-left="0"
     fit-margin-right="0"
     fit-margin-bottom="0"
     inkscape:window-width="1360"
     inkscape:window-height="704"
     inkscape:window-x="0"
     inkscape:window-y="27"
     inkscape:window-maximized="1" />
  <metadata
     id="metadata12590">
    <rdf:RDF>
      <cc:Work
         rdf:about="">
        <dc:format>image/svg+xml</dc:format>
        <dc:type
           rdf:resource="http://purl.org/dc/dcmitype/StillImage" />
        <dc:title></dc:title>
      </cc:Work>
    </rdf:RDF>
  </metadata>
  <g
     inkscape:label="Layer 1"
     inkscape:groupmode="layer"
     id="layer1"
     transform="translate(197.64528,-320.94606)">
    <rect
       transform="scale(-1,1)"
       style="display:inline;opacity:0.56199999;fill:url(#linearGradient6446);fill-opacity:1;stroke:none;stroke-width:1;stroke-linejoin:miter;stroke-miterlimit:4;stroke-dasharray:none;stroke-dashoffset:0;stroke-opacity:0.71493213"
       id="rect6426"
       width="505.29053"
       height="3.7143741"
       x="-901.93103"
       y="344.79074" />
    <g
       style="display:inline;fill:#584b79;fill-opacity:1"
       id="g6428"
       transform="matrix(0.43805326,0.33768559,-0.33768559,0.43805326,347.1254,307.86072)">
      <path
         style="fill:#584b79;fill-opacity:1"
         sodipodi:nodetypes="ssscssscscscssscssscscscsccscscccccsscscs"
         inkscape:connector-curvature="0"
         id="path6430"
         d="m 36.183,87.328 c 0,1.025 0.831,1.855 1.856,1.855 1.026,0 1.855,-0.83 1.855,-1.855 0,-4.836 4.798,-7.576 10.106,-10.35 5.309,2.773 10.105,5.514 10.105,10.35 0,1.025 0.83,1.855 1.855,1.855 1.024,0 1.855,-0.83 1.855,-1.855 0,-6.111 -4.764,-9.619 -9.864,-12.443 5.101,-2.824 9.864,-6.33 9.864,-12.441 0,-6.113 -4.764,-9.617 -9.864,-12.443 5.101,-2.824 9.864,-6.33 9.864,-12.443 0,-6.113 -4.764,-9.617 -9.864,-12.441 5.101,-2.824 9.864,-6.33 9.864,-12.443 0,-1.023 -0.831,-1.855 -1.855,-1.855 -1.025,0 -1.855,0.832 -1.855,1.855 0,4.836 -4.797,7.576 -10.105,10.352 -5.309,-2.775 -10.106,-5.516 -10.106,-10.352 0,-1.023 -0.829,-1.855 -1.855,-1.855 -1.025,0 -1.856,0.832 -1.856,1.855 0,6.113 4.766,9.619 9.864,12.443 -5.099,2.824 -9.864,6.328 -9.864,12.441 0,6.113 4.765,9.618 9.864,12.442 -5.099,2.826 -9.864,6.33 -9.864,12.443 0,2.732 0.99,5.217 2.941,7.385 0.366,0.408 0.872,0.617 1.38,0.617 0.442,0 0.886,-0.158 1.24,-0.479 0.763,-0.684 0.825,-1.857 0.14,-2.621 -1.357,-1.508 -1.989,-3.066 -1.989,-4.902 0,-4.838 4.798,-7.576 10.106,-10.352 5.307,2.775 10.105,5.514 10.105,10.352 0,4.836 -4.797,7.576 -10.105,10.35 -2.53043,-0.969513 -8.062247,-5.128835 -8.376872,-5.640923 -0.876,-0.531 -1.128499,0.266974 -1.657499,1.143974 -0.528,0.877 -1.136501,1.505026 -0.259501,2.034026 0.178315,0.583411 5.523779,4.355179 6.340872,4.554923 -5.1,2.824 -9.865,6.332 -9.865,12.443 z m 3.712,-49.771 c 0,-4.834 4.798,-7.574 10.106,-10.348 5.307,2.773 10.105,5.514 10.105,10.348 0,4.836 -4.797,7.576 -10.105,10.35 -5.309,-2.774 -10.106,-5.514 -10.106,-10.35 z" />
      <path
         style="fill:#584b79;fill-opacity:1"
         id="path6432"
         d="m 54.606,15.811 c 1.024,0 1.856,-0.83 1.856,-1.854 0,-1.025 -0.832,-1.857 -1.856,-1.857 l -9.212,0 c -1.025,0 -1.856,0.832 -1.856,1.857 0,1.023 0.831,1.854 1.856,1.854 l 9.212,0 z"
         inkscape:connector-curvature="0" />
      <path
         style="fill:#584b79;fill-opacity:1"
         id="path6434"
         d="m 45.395,85.473 c -1.025,0 -1.856,0.83 -1.856,1.855 0,1.025 0.831,1.855 1.856,1.855 l 9.212,0 c 1.024,0 1.856,-0.83 1.856,-1.855 0,-1.025 -0.832,-1.855 -1.856,-1.855 l -9.212,0 z"
         inkscape:connector-curvature="0" />
      <path
         style="fill:#584b79;fill-opacity:1"
         id="path6436"
         d="m 45.395,36.779 9.212,0 c 1.024,0 1.856,-0.832 1.856,-1.857 0,-1.023 -0.832,-1.855 -1.856,-1.855 l -9.212,0 c -1.025,0 -1.856,0.832 -1.856,1.855 -0.001,1.025 0.83,1.857 1.856,1.857 z"
         inkscape:connector-curvature="0" />
      <path
         style="fill:#584b79;fill-opacity:1"
         id="path6438"
         d="m 54.606,42.76 c 1.024,0 1.856,-0.832 1.856,-1.857 0,-1.023 -0.832,-1.855 -1.856,-1.855 l -9.212,0 c -1.025,0 -1.856,0.832 -1.856,1.855 0,1.025 0.831,1.857 1.856,1.857 l 9.212,0 z"
         inkscape:connector-curvature="0" />
      <path
         style="fill:#584b79;fill-opacity:1"
         id="path6440"
         d="m 45.395,60.908 9.212,0 c 1.024,0 1.856,-0.832 1.856,-1.857 0,-1.023 -0.832,-1.855 -1.856,-1.855 l -9.212,0 c -1.025,0 -1.856,0.832 -1.856,1.855 -0.001,1.025 0.83,1.857 1.856,1.857 z"
         inkscape:connector-curvature="0" />
      <path
         style="fill:#584b79;fill-opacity:1"
         id="path6442"
         d="m 45.395,66.889 9.212,0 c 1.024,0 1.856,-0.83 1.856,-1.855 0,-1.025 -0.832,-1.857 -1.856,-1.857 l -9.212,0 c -1.025,0 -1.856,0.832 -1.856,1.857 0,1.025 0.83,1.855 1.856,1.855 z"
         inkscape:connector-curvature="0" />
    </g>
    <rect
       y="344.79074"
       x="-197.64528"
       height="3.7143741"
       width="505.29053"
       id="rect13247"
       style="display:inline;opacity:0.56199999;fill:url(#linearGradient13249);fill-opacity:1;stroke:none;stroke-width:1;stroke-linejoin:miter;stroke-miterlimit:4;stroke-dasharray:none;stroke-dashoffset:0;stroke-opacity:0.71493213" />
  </g>
</svg>
