<?xml version="1.0" encoding="UTF-8" standalone="no"?>
<!-- Created with Inkscape (http://www.inkscape.org/) -->

<svg
   xmlns:dc="http://purl.org/dc/elements/1.1/"
   xmlns:cc="http://creativecommons.org/ns#"
   xmlns:rdf="http://www.w3.org/1999/02/22-rdf-syntax-ns#"
   xmlns:svg="http://www.w3.org/2000/svg"
   xmlns="http://www.w3.org/2000/svg"
   xmlns:sodipodi="http://sodipodi.sourceforge.net/DTD/sodipodi-0.dtd"
   xmlns:inkscape="http://www.inkscape.org/namespaces/inkscape"
   id="svg4897"
   version="1.1"
   inkscape:version="0.91 r13725"
   xml:space="preserve"
   width="1105.0004"
   height="868.76526"
   viewBox="0 0 1105.0004 868.76526"
   sodipodi:docname="logo-condensed_white.svg"><metadata
     id="metadata4903"><rdf:RDF><cc:Work
         rdf:about=""><dc:format>image/svg+xml</dc:format><dc:type
           rdf:resource="http://purl.org/dc/dcmitype/StillImage" /><dc:title></dc:title></cc:Work></rdf:RDF></metadata><defs
     id="defs4901"><clipPath
       clipPathUnits="userSpaceOnUse"
       id="clipPath4919"><path
         d="m 0,1080 1920,0 L 1920,0 0,0 0,1080 Z"
         id="path4921"
         inkscape:connector-curvature="0" /></clipPath></defs><sodipodi:namedview
     pagecolor="#ffffff"
     bordercolor="#666666"
     borderopacity="1"
     objecttolerance="10"
     gridtolerance="10"
     guidetolerance="10"
     inkscape:pageopacity="0"
     inkscape:pageshadow="2"
     inkscape:window-width="1920"
     inkscape:window-height="1016"
     id="namedview4899"
     showgrid="false"
     fit-margin-top="0"
     fit-margin-left="0"
     fit-margin-right="0"
     fit-margin-bottom="0"
     inkscape:zoom="0.17481481"
     inkscape:cx="552.49987"
     inkscape:cy="434.38237"
     inkscape:window-x="0"
     inkscape:window-y="27"
     inkscape:window-maximized="1"
     inkscape:current-layer="g4905" /><g
     id="g4905"
     inkscape:groupmode="layer"
     inkscape:label="logo_condensado_blanco (1)"
     transform="matrix(1.25,0,0,-1.25,-647.50013,1109.3829)"><g
       id="g4907"
       transform="translate(1163.1074,887.5063)"><path
         d="m 0,0 0,-53.087 185.806,0 0,-185.806 53.087,0 L 238.893,0 0,0 Z"
         style="fill:#ffffff;fill-opacity:1;fill-rule:nonzero;stroke:none"
         id="path4909"
         inkscape:connector-curvature="0" /></g><g
       id="g4911"
       transform="translate(756.8931,192.4941)"><path
         d="m 0,0 0,53.087 -185.806,0 0,185.806 -53.087,0 L -238.893,0 0,0 Z"
         style="fill:#ffffff;fill-opacity:1;fill-rule:nonzero;stroke:none"
         id="path4913"
         inkscape:connector-curvature="0" /></g><g
       id="g4915"><g
         id="g4917"
         clip-path="url(#clipPath4919)"><g
           id="g4923"
           transform="translate(1128.5098,564.0513)"><path
             d="m 0,0 c 29.052,0 55.002,-11.88 72.133,-30.507 l 0,0.002 64.617,32.671 C 106.421,42.544 55.725,69.025 -1.726,69.025 c -92.863,0 -168.144,-69.143 -168.144,-154.435 0,-85.291 75.284,-153.645 168.144,-154.433 87.968,-0.747 132.326,63.941 132.326,63.941 l -58.467,39.122 0,0.004 C 55.002,-155.404 29.052,-167.284 0,-167.284 c -51.585,0 -93.403,37.449 -93.403,83.642 C -93.403,-37.448 -51.585,0 0,0"
             style="fill:#ffffff;fill-opacity:1;fill-rule:nonzero;stroke:none"
             id="path4925"
             inkscape:connector-curvature="0" /></g><g
           id="g4927"
           transform="translate(837.2954,558.8677)"><path
             d="m 0,0 c -17.554,13.446 -64.674,51.095 -73.913,60.956 -9.239,9.86 -18.479,23.856 -12.011,36.579 6.467,12.723 15.688,19.894 30.018,18.101 14.33,-1.793 40.2,-10.757 63.298,-42.131 L 67.446,124.6 c 0,0 -49.891,53.784 -85,61.852 -35.247,8.099 -89.62,16.135 -128.425,-39.976 -27.898,-40.343 -20.343,-72.971 -16.63,-85.52 5.817,-19.659 29.565,-51.096 48.044,-67.231 18.478,-16.135 91.324,-75.802 102.406,-93.262 8.774,-13.822 16.779,-62.712 -49.743,-60.023 -35.078,1.418 -55.435,51.991 -55.435,51.991 l -67.446,-40.338 c 0,0 30.732,-45.612 49.891,-60.058 18.072,-13.626 38.808,-27.957 94.24,-27.42 74.733,0.725 130.14,58.488 112.733,137.677 C 61.838,-51.113 17.555,-13.446 0,0"
             style="fill:#ffffff;fill-opacity:1;fill-rule:nonzero;stroke:none"
             id="path4929"
             inkscape:connector-curvature="0" /></g></g></g></g></svg>