<?xml version="1.0" encoding="UTF-8" standalone="no"?>
<!-- Created with Inkscape (http://www.inkscape.org/) -->

<svg
   xmlns:dc="http://purl.org/dc/elements/1.1/"
   xmlns:cc="http://creativecommons.org/ns#"
   xmlns:rdf="http://www.w3.org/1999/02/22-rdf-syntax-ns#"
   xmlns:svg="http://www.w3.org/2000/svg"
   xmlns="http://www.w3.org/2000/svg"
   xmlns:sodipodi="http://sodipodi.sourceforge.net/DTD/sodipodi-0.dtd"
   xmlns:inkscape="http://www.inkscape.org/namespaces/inkscape"
   width="45.961906mm"
   height="41.930157mm"
   viewBox="0 0 162.85715 148.57142"
   id="svg14277"
   version="1.1"
   inkscape:version="0.91 r13725"
   sodipodi:docname="house.svg">
  <defs
     id="defs14279" />
  <sodipodi:namedview
     id="base"
     pagecolor="#ffffff"
     bordercolor="#666666"
     borderopacity="1.0"
     inkscape:pageopacity="0.0"
     inkscape:pageshadow="2"
     inkscape:zoom="0.98994949"
     inkscape:cx="-38.198321"
     inkscape:cy="132.29251"
     inkscape:document-units="px"
     inkscape:current-layer="layer1"
     showgrid="false"
     fit-margin-top="0"
     fit-margin-left="0"
     fit-margin-right="0"
     fit-margin-bottom="0"
     inkscape:window-width="1360"
     inkscape:window-height="704"
     inkscape:window-x="0"
     inkscape:window-y="27"
     inkscape:window-maximized="1" />
  <metadata
     id="metadata14282">
    <rdf:RDF>
      <cc:Work
         rdf:about="">
        <dc:format>image/svg+xml</dc:format>
        <dc:type
           rdf:resource="http://purl.org/dc/dcmitype/StillImage" />
        <dc:title></dc:title>
      </cc:Work>
    </rdf:RDF>
  </metadata>
  <g
     inkscape:label="Layer 1"
     inkscape:groupmode="layer"
     id="layer1"
     transform="translate(-127.95256,-297.29736)">
    <g
       style="opacity:1;fill:#333333;fill-opacity:1"
       id="g14059"
       transform="matrix(1.4309901,0,0,1.4309901,137.83163,-1062.7736)">
      <path
         id="path14061"
         transform="translate(0,952.36218)"
         d="M 49.78125,8 A 1.0001,1.0001 0 0 0 49,9 L 49,22.40625 31.5,32.125 A 1.0001,1.0001 0 0 0 31,33 l 0,8.125 -25.34375,8.90625 A 1.0001,1.0001 0 0 0 5,51 l 0,40 a 1.0001,1.0001 0 0 0 1,1 l 88,0 a 1.0001,1.0001 0 0 0 1,-1 L 95,51 A 1.0001,1.0001 0 0 0 94.34375,50.03125 L 69,41.125 69,33 A 1.0001,1.0001 0 0 0 68.5,32.125 L 51,22.40625 51,18.125 c 3.682125,1.92771 7.444838,2.74633 11.4375,0.75 A 1.0001,1.0001 0 0 0 63,18 l 0,-7 a 1.0001,1.0001 0 0 0 -1.4375,-0.90625 c -1.761486,0.88074 -3.464679,0.89946 -5.3125,0.4375 -1.847821,-0.46196 -3.8125,-1.4375 -5.8125,-2.4375 A 1.0001,1.0001 0 0 0 49.78125,8 Z M 51,10.46875 c 1.557017,0.75942 3.096726,1.58668 4.75,2 1.694723,0.42368 3.474406,0.30716 5.25,-0.21875 l 0,5.03125 c -3.419934,1.4727 -6.397025,0.69148 -9.9375,-1.34375 A 1.0001,1.0001 0 0 0 51,15.875 l 0,-5.40625 z m -1,13.6875 17,9.4375 L 67,90 57,90 57,72 A 1.0001,1.0001 0 0 0 56,71 L 44,71 A 1.0001,1.0001 0 0 0 43.8125,71 1.0001,1.0001 0 0 0 43,72 l 0,18 -10,0 0,-56.40625 17,-9.4375 z M 50,32 c -4.406433,0 -8,3.59357 -8,8 0,4.40643 3.593567,8 8,8 4.406433,0 8,-3.59357 8,-8 0,-4.40643 -3.593567,-8 -8,-8 z m 0,2 c 3.325555,0 6,2.67445 6,6 0,3.32555 -2.674445,6 -6,6 -3.325554,0 -6,-2.67445 -6,-6 0,-3.32555 2.674446,-6 6,-6 z M 31,43.25 31,90 7,90 7,51.71875 31,43.25 Z m 38,0 24,8.46875 L 93,90 69,90 69,43.25 Z M 39.8125,53 A 1.0001,1.0001 0 0 0 39,54 l 0,10 a 1.0001,1.0001 0 0 0 1,1 l 20,0 a 1.0001,1.0001 0 0 0 1,-1 l 0,-10 a 1.0001,1.0001 0 0 0 -1,-1 l -20,0 a 1.0001,1.0001 0 0 0 -0.1875,0 z m -26,2 A 1.0001,1.0001 0 0 0 13,56 l 0,8 a 1.0001,1.0001 0 0 0 1,1 l 10,0 a 1.0001,1.0001 0 0 0 1,-1 l 0,-8 a 1.0001,1.0001 0 0 0 -1,-1 l -10,0 a 1.0001,1.0001 0 0 0 -0.1875,0 z M 41,55 l 18,0 0,8 -18,0 0,-8 z m 34.8125,0 A 1.0001,1.0001 0 0 0 75,56 l 0,8 a 1.0001,1.0001 0 0 0 1,1 l 10,0 a 1.0001,1.0001 0 0 0 1,-1 l 0,-8 a 1.0001,1.0001 0 0 0 -1,-1 l -10,0 a 1.0001,1.0001 0 0 0 -0.1875,0 z M 15,57 l 8,0 0,6 -8,0 0,-6 z m 62,0 8,0 0,6 -8,0 0,-6 z M 13.8125,71 A 1.0001,1.0001 0 0 0 13,72 l 0,8 a 1.0001,1.0001 0 0 0 1,1 l 10,0 a 1.0001,1.0001 0 0 0 1,-1 l 0,-8 a 1.0001,1.0001 0 0 0 -1,-1 l -10,0 a 1.0001,1.0001 0 0 0 -0.1875,0 z m 62,0 A 1.0001,1.0001 0 0 0 75,72 l 0,8 a 1.0001,1.0001 0 0 0 1,1 l 10,0 a 1.0001,1.0001 0 0 0 1,-1 l 0,-8 a 1.0001,1.0001 0 0 0 -1,-1 l -10,0 a 1.0001,1.0001 0 0 0 -0.1875,0 z M 15,73 l 8,0 0,6 -8,0 0,-6 z m 30,0 10,0 0,17 -10,0 0,-17 z m 32,0 8,0 0,6 -8,0 0,-6 z"
         style="color:#000000;font-style:normal;font-variant:normal;font-weight:normal;font-stretch:normal;font-size:medium;line-height:normal;font-family:Sans;-inkscape-font-specification:Sans;text-indent:0;text-align:start;text-decoration:none;text-decoration-line:none;letter-spacing:normal;word-spacing:normal;text-transform:none;direction:ltr;block-progression:tb;writing-mode:lr-tb;baseline-shift:baseline;text-anchor:start;display:inline;overflow:visible;visibility:visible;opacity:1;fill:#333333;fill-opacity:1;stroke:none;stroke-width:2;marker:none;enable-background:accumulate"
         inkscape:connector-curvature="0" />
    </g>
  </g>
</svg>
