<?xml version="1.0" encoding="UTF-8" standalone="no"?>
<!-- Created with Inkscape (http://www.inkscape.org/) -->

<svg
   xmlns:dc="http://purl.org/dc/elements/1.1/"
   xmlns:cc="http://creativecommons.org/ns#"
   xmlns:rdf="http://www.w3.org/1999/02/22-rdf-syntax-ns#"
   xmlns:svg="http://www.w3.org/2000/svg"
   xmlns="http://www.w3.org/2000/svg"
   xmlns:sodipodi="http://sodipodi.sourceforge.net/DTD/sodipodi-0.dtd"
   xmlns:inkscape="http://www.inkscape.org/namespaces/inkscape"
   width="31.44762mm"
   height="25.198412mm"
   viewBox="0 0 111.42858 89.285711"
   id="svg13410"
   version="1.1"
   inkscape:version="0.91 r13725"
   sodipodi:docname="solution.svg">
  <defs
     id="defs13412" />
  <sodipodi:namedview
     id="base"
     pagecolor="#ffffff"
     bordercolor="#666666"
     borderopacity="1.0"
     inkscape:pageopacity="0.0"
     inkscape:pageshadow="2"
     inkscape:zoom="1.4"
     inkscape:cx="-74.00896"
     inkscape:cy="-54.392396"
     inkscape:document-units="px"
     inkscape:current-layer="layer1"
     showgrid="false"
     fit-margin-top="0"
     fit-margin-left="0"
     fit-margin-right="0"
     fit-margin-bottom="0"
     inkscape:window-width="1360"
     inkscape:window-height="704"
     inkscape:window-x="0"
     inkscape:window-y="27"
     inkscape:window-maximized="1" />
  <metadata
     id="metadata13415">
    <rdf:RDF>
      <cc:Work
         rdf:about="">
        <dc:format>image/svg+xml</dc:format>
        <dc:type
           rdf:resource="http://purl.org/dc/dcmitype/StillImage" />
        <dc:title></dc:title>
      </cc:Work>
    </rdf:RDF>
  </metadata>
  <g
     inkscape:label="Layer 1"
     inkscape:groupmode="layer"
     id="layer1"
     transform="translate(-344.28571,-459.14792)">
    <g
       id="g13986">
      <path
         inkscape:connector-curvature="0"
         id="path11758"
         d="m 421.31549,494.97862 -0.0486,0.02 c -4.30741,1.7688 -7.88775,3.8631 -10.8782,7.3563 -2.99044,3.4932 -5.38476,8.3714 -7.36976,15.6958 l -0.005,0.02 -0.002,0.021 c -0.15409,1.3793 -0.18422,2.7647 0.35705,4.6261 l 0.0248,0.087 0.0735,0.054 c 4.56993,3.3416 9.73748,4.798 14.66915,6.8151 l 0.0176,0.01 0.0197,0.01 c 2.58235,0.6262 4.07217,0.053 5.25436,-0.7327 l 10e-4,0 0.002,0 c 5.69439,-3.8951 12.19011,-7.0697 16.24433,-12.7638 l 0.0414,-0.057 0.007,-0.07 c 1.18752,-11.4946 0.90243,-8.5179 1.13118,-12.6903 l 10e-4,-0.01 0,-0.01 c -0.006,-1.2235 -0.14705,-2.4594 -0.57025,-3.5488 -0.4232,-1.0894 -1.1404,-2.0343 -2.26961,-2.6215 l -0.004,0 -0.005,0 c -1.49439,-0.702 -4.35734,-1.2255 -7.51258,-1.6001 -3.15525,-0.3745 -6.58247,-0.5855 -9.12502,-0.6002 l -0.0538,0 0,-0.01 z m 0.10143,0.533 c 2.51184,0.016 5.89915,0.2232 9.01531,0.593 1.74889,0.2076 3.40386,0.4724 4.76897,0.7742 -5.76672,4.8337 -9.28888,9.8604 -12.54754,14.666 l -14.68468,-4.7813 c 0.87994,-1.5464 1.81708,-2.8901 2.82228,-4.0642 2.91066,-3.4001 6.38262,-5.4402 10.62566,-7.1877 z m 14.42905,1.5163 c 0.79206,0.197 1.45913,0.4078 1.93119,0.6292 1.00231,0.5232 1.62757,1.3416 2.01501,2.3389 0.38722,0.9968 0.52644,2.1703 0.53299,3.3511 -0.22721,4.1471 0.0405,1.3338 -1.12186,12.5828 -3.95561,5.5183 -10.35194,8.6714 -16.0715,12.5837 -1.11505,0.7402 -2.36307,1.2526 -4.82382,0.6582 -4.92985,-2.0138 -9.99806,-3.4659 -14.44562,-6.6908 -0.48862,-1.7302 -0.47113,-2.9951 -0.32497,-4.3126 1.23394,-4.5479 2.62143,-8.1266 4.20287,-11.0045 l -0.0238,0.075 15.15041,4.9325 0.11177,-0.1646 c 3.34545,-4.937 6.90839,-10.0602 12.86734,-14.9785 z m 0.39845,1.7955 a 0.15898179,0.15898179 0 0 0 -0.12212,0.055 c -11.68847,13.152 -16.16127,21.9923 -15.78379,28.0373 a 0.15917942,0.15917942 0 1 0 0.31773,-0.02 c -0.36646,-5.8685 4.03601,-14.6775 15.70409,-27.8065 a 0.15898179,0.15898179 0 0 0 -0.11591,-0.2661 z m -28.39652,13.2255 -0.089,0.2215 -1.65072,4.12 11.29527,4.6696 1.73973,-4.3415 -11.29527,-4.6696 z m 0.26287,0.625 10.41455,4.3054 -1.38475,3.4556 -10.41351,-4.3053 1.38371,-3.4557 z m -1.00802,5.095 c -0.69657,0 -1.22226,0.6846 -1.22226,1.482 0,0.7976 0.52569,1.4831 1.22226,1.4831 0.69656,0 1.22122,-0.6855 1.22122,-1.4831 0,-0.7974 -0.52466,-1.482 -1.22122,-1.482 z m 0,0.355 c 0.45637,0 0.8652,0.4833 0.8652,1.127 0,0.6438 -0.40883,1.1271 -0.8652,1.1271 -0.45638,0 -0.86625,-0.4833 -0.86625,-1.1271 0,-0.6437 0.40987,-1.1269 0.86625,-1.127 z m 7.82823,2.7757 c -0.69657,0 -1.22225,0.6856 -1.22225,1.4831 0,0.7974 0.52568,1.482 1.22225,1.482 0.69657,0 1.22123,-0.6846 1.22123,-1.482 0,-0.7975 -0.52466,-1.4831 -1.22123,-1.4831 z m 0,0.356 c 0.45638,0 0.86624,0.4833 0.86624,1.1271 0,0.6437 -0.40986,1.127 -0.86624,1.127 -0.45637,0 -0.86623,-0.4833 -0.86623,-1.127 0,-0.6438 0.40986,-1.1271 0.86623,-1.1271 z"
         style="color:#000000;font-style:normal;font-variant:normal;font-weight:normal;font-stretch:normal;font-size:medium;line-height:normal;font-family:sans-serif;text-indent:0;text-align:start;text-decoration:none;text-decoration-line:none;text-decoration-style:solid;text-decoration-color:#000000;letter-spacing:normal;word-spacing:normal;text-transform:none;direction:ltr;block-progression:tb;writing-mode:lr-tb;baseline-shift:baseline;text-anchor:start;white-space:normal;clip-rule:nonzero;display:inline;overflow:visible;visibility:visible;opacity:1;isolation:auto;mix-blend-mode:normal;color-interpolation:sRGB;color-interpolation-filters:linearRGB;solid-color:#000000;solid-opacity:1;fill:#544c84;fill-opacity:1;fill-rule:evenodd;stroke:none;stroke-width:1px;stroke-linecap:butt;stroke-linejoin:miter;stroke-miterlimit:4;stroke-dasharray:none;stroke-dashoffset:0;stroke-opacity:1;color-rendering:auto;image-rendering:auto;shape-rendering:auto;text-rendering:auto;enable-background:accumulate" />
      <path
         inkscape:connector-curvature="0"
         id="path11824"
         d="m 382.3771,477.62581 c -0.51495,0.021 -1.05406,0.1165 -1.61244,0.2948 -0.23699,0.045 -0.41819,0.097 -0.56404,0.1999 -0.0744,0.053 -0.14239,0.1232 -0.18214,0.2172 -0.0397,0.094 -0.0421,0.204 -0.0176,0.293 0.049,0.178 0.16381,0.2929 0.30116,0.4097 0.0746,0.064 0.16383,0.1266 0.25977,0.1894 l -14.14031,2.5491 -0.81656,-0.9573 0,0 -0.2401,0.2049 -0.0776,-0.036 c -0.028,0.06 -0.0481,0.1085 -0.0755,0.1666 l -0.009,0.01 0.004,0.01 c -0.3799,0.8039 -0.70958,1.4834 -0.81656,2.3131 -0.11526,0.894 0.0246,1.9442 0.55991,3.5156 l 0.003,0.01 -5.80909,1.03701 0.0114,0.2329 0.37258,7.584 15.909,21.627 0.93972,-0.3343 0.0363,-0.01 -0.001,-0.01 26.66404,-9.4883 0.533,-2.9309 -3.2497,-8.4979 -11.53848,-9.65491 0.0859,-0.1118 c 0.82434,-1.0743 0.96625,-2.2413 0.84554,-3.1824 -0.12071,-0.9411 -0.46415,-1.6403 -0.73273,-1.9497 l -0.008,-0.011 -0.0104,-0.01 c -0.13193,-0.1244 -0.45978,-0.5143 -0.90763,-0.9728 -0.44786,-0.4587 -1.03013,-0.9985 -1.73662,-1.4769 -1.05973,-0.7175 -2.4127,-1.2951 -3.97932,-1.2295 z m 0.0279,0.5246 0,0 c 1.43173,-0.062 2.6568,0.4662 3.65435,1.1416 0.66503,0.4502 1.22236,0.9657 1.65486,1.4085 0.42384,0.4341 0.70591,0.7784 0.90454,0.9688 0.12806,0.1475 0.50121,0.8336 0.60853,1.6703 0.0972,0.7576 -0.0521,1.651 -0.61164,2.5201 l -7.51052,-6.9154 -0.0249,-0.014 c -0.18591,-0.109 -0.33552,-0.2106 -0.43467,-0.295 -0.067,-0.057 -0.0729,-0.075 -0.09,-0.099 0.0502,-0.027 0.1371,-0.067 0.31565,-0.1004 l 0.0176,-0.01 0.0166,-0.01 c 0.52259,-0.1691 1.02238,-0.2554 1.49962,-0.2764 z m -1.41786,1.54 6.65773,6.0834 -15.09141,3.19381 -5.73353,-6.72191 14.16721,-2.5553 z m -15.37706,1.9509 6.43109,7.53951 c -1.01781,0.2556 -2.10151,0.3653 -3.17208,0.096 -1.20728,-0.3035 -2.39099,-1.0452 -3.42976,-2.49721 -0.5056,-1.4986 -0.62409,-2.4533 -0.52369,-3.2322 0.083,-0.6435 0.38182,-1.237 0.69444,-1.9063 z m 22.20659,4.6386 -0.11902,5.09391 -14.8451,3.5073 0.11385,-5.3764 0.0363,-0.011 -0.0352,-0.041 0.001,-0.031 14.8482,-3.14111 z m 0.51747,0.5723 11.00859,9.21091 -26.55641,8.0601 -12.72969,-15.7042 5.02461,-0.89831 0.38292,1.01121 6.78606,7.0365 15.96801,-3.7723 0.11591,-4.94391 z m -22.45601,1.27501 c 0.89141,0.8909 1.87074,1.4162 2.8616,1.6652 1.26886,0.319 2.54382,0.1875 3.69368,-0.1366 l -0.11074,5.2233 -6.40107,-6.6371 -0.0435,-0.1148 z m -6.02124,0.327 -0.15628,0.1274 -0.005,-0.098 0.16145,-0.029 z m -0.14385,0.383 12.9998,16.0373 2.92886,9.3962 0.20906,2.5065 -0.22044,0.079 -15.58093,-21.1809 -0.33635,-6.8378 z m 40.11507,7.6326 0.0859,0.071 3.14724,8.2319 -0.45227,2.4817 -26.24283,9.3393 -0.20181,-2.4258 -2.97543,-9.5484 -0.0425,-0.052 26.68164,-8.0983 z m -2.78397,5.2306 c -0.0863,-0.01 -0.17451,0 -0.26183,0.018 -0.69859,0.1343 -1.0508,0.9162 -0.85072,1.7086 0.20008,0.7925 0.89729,1.3732 1.59587,1.2388 0.69859,-0.1344 1.05184,-0.9173 0.85175,-1.7097 -0.17507,-0.6932 -0.73069,-1.2245 -1.33507,-1.2563 z m 10e-4,0.3611 c 0.40954,0.027 0.83541,0.404 0.97699,0.9646 0.1618,0.6408 -0.12773,1.1998 -0.5837,1.2875 -0.45597,0.088 -0.98801,-0.3134 -1.14982,-0.9543 -0.1618,-0.6407 0.12774,-1.1996 0.58371,-1.2873 0.057,-0.011 0.11432,-0.014 0.17282,-0.011 z m -3.19897,0.6241 c -0.0863,-0.01 -0.17349,0 -0.26081,0.018 -0.69859,0.1343 -1.05184,0.9173 -0.85175,1.7096 0.20007,0.7923 0.89729,1.3723 1.59587,1.2378 0.6986,-0.1343 1.05183,-0.9163 0.85175,-1.7087 -0.17507,-0.6932 -0.73089,-1.2244 -1.33506,-1.2563 z m 0.001,0.3592 c 0.40958,0.027 0.83539,0.4048 0.97698,0.9655 0.1618,0.6408 -0.12773,1.1998 -0.5837,1.2875 -0.45598,0.088 -0.98801,-0.3134 -1.14981,-0.9542 -0.16181,-0.6408 0.12772,-1.2008 0.5837,-1.2885 0.057,-0.011 0.11432,-0.014 0.17283,-0.01 z m -9.84222,2.8388 c -0.0863,-0.01 -0.17348,0 -0.2608,0.018 -0.69859,0.1344 -1.05286,0.9174 -0.85278,1.7098 0.20007,0.7922 0.8983,1.3721 1.59689,1.2377 0.6986,-0.1344 1.05185,-0.9163 0.85175,-1.7087 -0.17506,-0.6933 -0.73088,-1.2244 -1.33506,-1.2564 z m 0.002,0.3601 c 0.40935,0.027 0.83334,0.404 0.97492,0.9646 0.16181,0.6409 -0.1267,1.1998 -0.58267,1.2874 -0.45597,0.088 -0.988,-0.3134 -1.14982,-0.9542 -0.16179,-0.6408 0.12774,-1.1997 0.58371,-1.2874 0.057,-0.011 0.11539,-0.014 0.17386,-0.01 z m -4.69653,0.5579 c -0.22457,0 -0.44801,0.049 -0.65511,0.1614 l 0,0 c -0.4142,0.2248 -0.67432,0.6468 -0.76377,1.1188 -0.0894,0.4719 -0.0175,1.0013 0.22665,1.4913 0.2441,0.4901 0.61859,0.8558 1.0401,1.0505 0.42153,0.1947 0.90119,0.2156 1.3154,-0.01 0.41421,-0.2248 0.67435,-0.6468 0.76378,-1.1187 0.0895,-0.472 0.0175,-1.0024 -0.22665,-1.4924 -0.24409,-0.49 -0.61858,-0.8548 -1.04011,-1.0495 -0.21075,-0.097 -0.43571,-0.1517 -0.66029,-0.1531 z m -0.008,0.4905 c 0.1516,0 0.30926,0.038 0.46675,0.1119 0.315,0.1454 0.61798,0.4334 0.81656,0.832 0.19859,0.3986 0.25003,0.823 0.18319,1.1756 -0.0668,0.3527 -0.24325,0.6262 -0.51022,0.7711 -0.26698,0.1449 -0.58233,0.1384 -0.8973,-0.01 -0.31498,-0.1455 -0.61901,-0.4335 -0.81759,-0.8321 -0.19859,-0.3987 -0.25002,-0.8229 -0.18319,-1.1757 0.0668,-0.3526 0.24325,-0.6251 0.51023,-0.77 0.13348,-0.072 0.27996,-0.107 0.43157,-0.1056 z"
         style="color:#000000;font-style:normal;font-variant:normal;font-weight:normal;font-stretch:normal;font-size:medium;line-height:normal;font-family:sans-serif;text-indent:0;text-align:start;text-decoration:none;text-decoration-line:none;text-decoration-style:solid;text-decoration-color:#000000;letter-spacing:normal;word-spacing:normal;text-transform:none;direction:ltr;block-progression:tb;writing-mode:lr-tb;baseline-shift:baseline;text-anchor:start;white-space:normal;clip-rule:nonzero;display:inline;overflow:visible;visibility:visible;opacity:1;isolation:auto;mix-blend-mode:normal;color-interpolation:sRGB;color-interpolation-filters:linearRGB;solid-color:#000000;solid-opacity:1;fill:#544c84;fill-opacity:1;fill-rule:evenodd;stroke:none;stroke-width:1px;stroke-linecap:butt;stroke-linejoin:miter;stroke-miterlimit:4;stroke-dasharray:none;stroke-dashoffset:0;stroke-opacity:1;color-rendering:auto;image-rendering:auto;shape-rendering:auto;text-rendering:auto;enable-background:accumulate" />
    </g>
  </g>
</svg>
