<?xml version="1.0" encoding="UTF-8" standalone="no"?>
<!-- Created with Inkscape (http://www.inkscape.org/) -->

<svg
   xmlns:dc="http://purl.org/dc/elements/1.1/"
   xmlns:cc="http://creativecommons.org/ns#"
   xmlns:rdf="http://www.w3.org/1999/02/22-rdf-syntax-ns#"
   xmlns:svg="http://www.w3.org/2000/svg"
   xmlns="http://www.w3.org/2000/svg"
   xmlns:sodipodi="http://sodipodi.sourceforge.net/DTD/sodipodi-0.dtd"
   xmlns:inkscape="http://www.inkscape.org/namespaces/inkscape"
   width="45.961906mm"
   height="41.930157mm"
   viewBox="0 0 162.85715 148.57142"
   id="svg14277"
   version="1.1"
   inkscape:version="0.91 r13725"
   sodipodi:docname="backpack.svg">
  <defs
     id="defs14279" />
  <sodipodi:namedview
     id="base"
     pagecolor="#ffffff"
     bordercolor="#666666"
     borderopacity="1.0"
     inkscape:pageopacity="0.0"
     inkscape:pageshadow="2"
     inkscape:zoom="0.98994949"
     inkscape:cx="-38.198321"
     inkscape:cy="132.29251"
     inkscape:document-units="px"
     inkscape:current-layer="layer1"
     showgrid="false"
     fit-margin-top="0"
     fit-margin-left="0"
     fit-margin-right="0"
     fit-margin-bottom="0"
     inkscape:window-width="1360"
     inkscape:window-height="704"
     inkscape:window-x="0"
     inkscape:window-y="27"
     inkscape:window-maximized="1" />
  <metadata
     id="metadata14282">
    <rdf:RDF>
      <cc:Work
         rdf:about="">
        <dc:format>image/svg+xml</dc:format>
        <dc:type
           rdf:resource="http://purl.org/dc/dcmitype/StillImage" />
        <dc:title></dc:title>
      </cc:Work>
    </rdf:RDF>
  </metadata>
  <g
     inkscape:label="Layer 1"
     inkscape:groupmode="layer"
     id="layer1"
     transform="translate(-127.95256,-297.29736)">
    <g
       style="opacity:1;fill:#333333;fill-opacity:1"
       id="g14217"
       transform="matrix(1.4954049,0,0,1.4954049,134.31181,297.11191)">
      <path
         style="fill:#333333;fill-opacity:1"
         d="m 24.6,38.1 0,43.9 c 0,4.4 3.6,8 8,8 l 35.3,0 c 4.4,0 8,-3.6 8,-8 l 0,-43.9 c 0,-1.8 -0.6,-3.5 -1.6,-5 2.1,-3.8 3.3,-8.1 3.3,-12.7 l 0,-0.9 c 0,-0.6 -0.4,-1 -1,-1 l -17.1,0 c -0.2,-4.9 -4.2,-8.9 -9.2,-8.9 -5,0 -9,4 -9.2,8.9 l -17.3,0 c -0.6,0 -1,0.4 -1,1 l 0,0.9 c 0,4.6 1.2,9 3.3,12.7 -1,1.5 -1.5,3.2 -1.5,5 z M 50.2,11.5 c 3.9,0 7,3.1 7.2,6.9 l -14.4,0 c 0.2,-3.8 3.4,-6.9 7.2,-6.9 z M 67.9,88 32.6,88 c -3.3,0 -6,-2.7 -6,-6 l 0,-1.4 47.4,0 0,1.4 c -0.1,3.3 -2.8,6 -6.1,6 z m 6,-49.9 0,40.5 -47.3,0 0,-40.5 c 0,-1.1 0.3,-2.1 0.8,-3 1.8,2.6 4,4.9 6.5,6.7 l 0,5 c -1.4,0.4 -2.4,1.7 -2.4,3.3 0,1.9 1.5,3.4 3.4,3.4 1.9,0 3.4,-1.5 3.4,-3.4 0,-1.5 -1,-2.8 -2.4,-3.3 l 0,-3.8 c 3.9,2.3 8.4,3.6 13.2,3.6 l 2.4,0 c 4.7,0 9.1,-1.2 12.9,-3.4 l 0,3.5 C 63,47.1 62,48.4 62,50 c 0,1.9 1.5,3.4 3.4,3.4 1.9,0 3.4,-1.5 3.4,-3.4 0,-1.5 -1,-2.8 -2.4,-3.3 l 0,-4.8 c 2.7,-1.9 5,-4.2 6.8,-6.9 0.5,1 0.7,2 0.7,3.1 z m -39,10.5 c 0.8,0 1.4,0.6 1.4,1.4 0,0.8 -0.6,1.4 -1.4,1.4 -0.8,0 -1.4,-0.6 -1.4,-1.4 -0.1,-0.8 0.6,-1.4 1.4,-1.4 z m 29.5,-28.2 0,20.4 c -3.7,2.4 -8.2,3.7 -12.9,3.7 l -2.5,0 c -4.9,0 -9.4,-1.4 -13.2,-3.9 l 0,-20.2 28.6,0 z m 1,28.2 c 0.8,0 1.4,0.6 1.4,1.4 0,0.8 -0.6,1.4 -1.4,1.4 -0.8,0 -1.4,-0.6 -1.4,-1.4 -0.1,-0.8 0.6,-1.4 1.4,-1.4 z m 1,-9.2 0,-19 9.3,0 c 0,7.8 -3.7,14.6 -9.3,19 z m -32.5,-19 0,18.8 c -5.5,-4.4 -9,-11.2 -9,-18.8 l 9,0 z"
         id="path14219"
         inkscape:connector-curvature="0" />
      <path
         style="fill:#333333;fill-opacity:1"
         d="M 68.5,55 32,55 c -0.6,0 -1,0.4 -1,1 l 0,13 c 0,3 2.1,5.4 4.6,5.4 l 29.4,0 c 2.5,0 4.6,-2.4 4.6,-5.4 l 0,-13 c -0.1,-0.6 -0.5,-1 -1.1,-1 z m -1,2 c -0.5,3.9 -3.8,6.9 -7.8,6.9 l -8.4,0 0,-2 c 0,-0.6 -0.4,-1 -1,-1 -0.6,0 -1,0.4 -1,1 l 0,2 -8.4,0 c -4,0 -7.3,-3 -7.8,-6.9 l 34.4,0 z m 0,12 c 0,1.9 -1.2,3.4 -2.6,3.4 l -29.3,0 C 34.2,72.4 33,70.9 33,69 l 0,-7 c 1.8,2.4 4.7,3.9 7.9,3.9 l 8.4,0 0,2.4 c 0,0.6 0.4,1 1,1 0.6,0 1,-0.4 1,-1 l 0,-2.4 8.4,0 c 3.2,0 6.1,-1.6 7.9,-3.9 l 0,7 z"
         id="path14221"
         inkscape:connector-curvature="0" />
    </g>
  </g>
</svg>
