<?xml version="1.0" encoding="UTF-8" standalone="no"?>
<!-- Created with Inkscape (http://www.inkscape.org/) -->

<svg
   xmlns:dc="http://purl.org/dc/elements/1.1/"
   xmlns:cc="http://creativecommons.org/ns#"
   xmlns:rdf="http://www.w3.org/1999/02/22-rdf-syntax-ns#"
   xmlns:svg="http://www.w3.org/2000/svg"
   xmlns="http://www.w3.org/2000/svg"
   xmlns:sodipodi="http://sodipodi.sourceforge.net/DTD/sodipodi-0.dtd"
   xmlns:inkscape="http://www.inkscape.org/namespaces/inkscape"
   width="31.44762mm"
   height="25.198414mm"
   viewBox="0 0 111.42858 89.285718"
   id="svg13410"
   version="1.1"
   inkscape:version="0.91 r13725"
   sodipodi:docname="problem.svg">
  <defs
     id="defs13412" />
  <sodipodi:namedview
     id="base"
     pagecolor="#ffffff"
     bordercolor="#666666"
     borderopacity="1.0"
     inkscape:pageopacity="0.0"
     inkscape:pageshadow="2"
     inkscape:zoom="1.4"
     inkscape:cx="60.276757"
     inkscape:cy="-36.178096"
     inkscape:document-units="px"
     inkscape:current-layer="layer1"
     showgrid="false"
     fit-margin-top="0"
     fit-margin-left="0"
     fit-margin-right="0"
     fit-margin-bottom="0"
     inkscape:window-width="1360"
     inkscape:window-height="704"
     inkscape:window-x="0"
     inkscape:window-y="27"
     inkscape:window-maximized="1" />
  <metadata
     id="metadata13415">
    <rdf:RDF>
      <cc:Work
         rdf:about="">
        <dc:format>image/svg+xml</dc:format>
        <dc:type
           rdf:resource="http://purl.org/dc/dcmitype/StillImage" />
        <dc:title></dc:title>
      </cc:Work>
    </rdf:RDF>
  </metadata>
  <g
     inkscape:label="Layer 1"
     inkscape:groupmode="layer"
     id="layer1"
     transform="translate(-209.99998,-477.36222)">
    <path
       inkscape:connector-curvature="0"
       id="path13390"
       d="m 241.45085,498.9217 c 0.73651,4.363 6.04096,2.9051 8.85775,4.104 0.46255,3.0076 -4.34474,3.3386 -5.21181,6.1799 -1.78447,2.76 -2.59652,5.9831 -3.91354,8.964 -4.86878,3.1402 -9.74839,8.2811 -8.92819,14.5414 -0.48836,3.7298 3.91569,6.9294 6.93795,4.1156 2.41109,-0.999 4.66205,-4.7259 6.45192,-4.9277 1.8985,4.5359 5.81449,7.8781 9.75294,10.6201 3.05432,1.7341 7.14099,3.8844 10.44995,1.535 4.67197,-3.2436 5.21668,-9.2683 6.53173,-14.3217 0.45044,-3.2925 2.09406,1.9605 3.61283,2.5379 3.68632,3.5415 8.75522,5.6241 13.8726,5.6322 2.48014,-0.2183 2.11312,-3.3562 -0.33578,-2.7457 -4.17403,-0.4097 -8.52806,-1.5544 -11.48694,-4.7203 -1.2681,-0.6542 -3.40343,-3.3821 -0.41601,-2.3121 5.25743,2.0774 11.05516,-0.425 14.93954,-4.0842 3.38188,-3.1828 6.89768,-7.1241 6.68968,-12.0873 -0.0459,-3.943 -1.97803,-7.9684 -5.21877,-10.25 -2.25376,-1.427 -5.29873,-1.3019 -7.44647,0.2726 -2.64633,1.2266 -4.35737,-1.8904 -6.67778,-2.4192 -4.18599,-1.2812 -8.59704,0.3221 -12.24326,2.3894 -8.76156,-0.809 -17.47577,-2.0433 -26.21834,-3.0239 z m 49.9555,4.592 c 6.10335,2.811 6.65682,12.2477 1.49241,16.242 -3.45561,4.1089 -9.09925,7.7734 -14.62589,5.7982 -2.66828,-0.181 -4.05333,-3.0636 -2.31862,-5.1328 1.3445,-4.784 3.40308,-9.6686 7.26212,-12.9393 2.20209,-0.4427 4.387,-0.936 5.05057,-3.3304 0.89355,-0.6546 2.07192,-0.7501 3.13941,-0.6377 z m -6.25005,0.1884 c 3.12289,1.097 -1.8949,4.101 -1.7902,0.9753 0.20442,-0.7262 1.05681,-1.2484 1.7902,-0.9753 z m -16.12235,1.2609 c 3.7697,0.5272 7.5539,0.9448 11.32161,1.4868 -4.62653,4.4211 -6.44059,10.7875 -8.00658,16.7903 -0.82893,-1.3003 -0.84402,-4.7994 -2.97226,-3.0269 -2.4716,-0.7309 0.24765,-2.9049 0.69619,-2.6874 -1.43822,-3.4284 -3.14376,-6.7716 -5.38584,-9.7497 1.28576,-1.1253 2.45539,-2.8106 4.34688,-2.8131 z m -13.45598,1.2011 c 2.38746,-0.7656 5.94698,1.7875 2.93227,3.8525 -1.64943,3.0114 -4.25258,5.6927 -7.93559,4.9722 -1.80282,-0.099 -6.90644,2.7002 -4.99226,-0.748 1.59011,-4.1729 5.21683,-8.1259 9.99558,-8.0767 z m 6.74887,4.3072 c 2.78524,1.1766 3.17561,4.6135 4.81657,6.8467 1.00952,1.0282 1.0958,3.5292 -0.77481,1.9232 -2.45341,-1.8946 -5.2486,-3.3553 -8.25914,-4.1372 1.84113,-1.1365 1.79793,-4.2721 4.21738,-4.6327 z m -5.85616,7.4104 c 5.31175,0.6936 9.58088,4.1947 13.98904,6.9297 1.06431,2.6155 -1.71468,4.8591 -1.52904,7.5348 -0.8135,3.6671 -1.83527,8.289 -5.79467,9.745 -3.2281,0.4362 -6.2509,-1.9194 -8.72763,-3.7915 -2.30825,-2.155 -4.83673,-4.369 -6.17402,-7.2762 -1.04557,-2.6951 1.79174,-4.1649 2.93973,-6.1517 1.60334,-2.3205 2.97665,-4.7933 4.64258,-7.0715 0.21801,0.027 0.43601,0.054 0.65401,0.081 z m -6.29716,0.1027 c 3.23111,0.1759 -0.31436,3.7875 -1.08871,5.1203 -1.25722,1.244 -3.21467,4.9348 -3.79043,1.3576 -2.09266,-2.8798 -0.42441,-6.587 3.27206,-6.2734 0.52916,-0.1091 1.0659,-0.1922 1.60708,-0.2045 z m -8.27738,5.0288 c 1.17351,2.7583 3.47098,6.6183 -0.33424,8.3964 -1.69297,1.6988 -6.48292,6.2111 -6.55667,1.3445 -0.53556,-4.6675 2.64496,-8.9683 6.46596,-11.3037 0.14164,0.5209 0.28329,1.0419 0.42495,1.5628 z"
       style="color:#000000;font-style:normal;font-variant:normal;font-weight:normal;font-stretch:normal;font-size:medium;line-height:normal;font-family:sans-serif;text-indent:0;text-align:start;text-decoration:none;text-decoration-line:none;text-decoration-style:solid;text-decoration-color:#000000;letter-spacing:normal;word-spacing:normal;text-transform:none;direction:ltr;block-progression:tb;writing-mode:lr-tb;baseline-shift:baseline;text-anchor:start;white-space:normal;clip-rule:nonzero;display:inline;overflow:visible;visibility:visible;opacity:1;isolation:auto;mix-blend-mode:normal;color-interpolation:sRGB;color-interpolation-filters:linearRGB;solid-color:#000000;solid-opacity:1;fill:#544c84;fill-opacity:1;fill-rule:evenodd;stroke:none;stroke-width:1px;stroke-linecap:butt;stroke-linejoin:miter;stroke-miterlimit:4;stroke-dasharray:none;stroke-dashoffset:0;stroke-opacity:1;color-rendering:auto;image-rendering:auto;shape-rendering:auto;text-rendering:auto;enable-background:accumulate" />
  </g>
</svg>
