<?xml version="1.0" encoding="UTF-8" standalone="no"?>
<!-- Created with Inkscape (http://www.inkscape.org/) -->

<svg
   xmlns:dc="http://purl.org/dc/elements/1.1/"
   xmlns:cc="http://creativecommons.org/ns#"
   xmlns:rdf="http://www.w3.org/1999/02/22-rdf-syntax-ns#"
   xmlns:svg="http://www.w3.org/2000/svg"
   xmlns="http://www.w3.org/2000/svg"
   xmlns:sodipodi="http://sodipodi.sourceforge.net/DTD/sodipodi-0.dtd"
   xmlns:inkscape="http://www.inkscape.org/namespaces/inkscape"
   width="45.961906mm"
   height="41.930157mm"
   viewBox="0 0 162.85715 148.57142"
   id="svg14277"
   version="1.1"
   inkscape:version="0.91 r13725"
   sodipodi:docname="rocket.svg">
  <defs
     id="defs14279" />
  <sodipodi:namedview
     id="base"
     pagecolor="#ffffff"
     bordercolor="#666666"
     borderopacity="1.0"
     inkscape:pageopacity="0.0"
     inkscape:pageshadow="2"
     inkscape:zoom="0.98994949"
     inkscape:cx="-38.198321"
     inkscape:cy="132.29251"
     inkscape:document-units="px"
     inkscape:current-layer="layer1"
     showgrid="false"
     fit-margin-top="0"
     fit-margin-left="0"
     fit-margin-right="0"
     fit-margin-bottom="0"
     inkscape:window-width="1360"
     inkscape:window-height="704"
     inkscape:window-x="0"
     inkscape:window-y="27"
     inkscape:window-maximized="1" />
  <metadata
     id="metadata14282">
    <rdf:RDF>
      <cc:Work
         rdf:about="">
        <dc:format>image/svg+xml</dc:format>
        <dc:type
           rdf:resource="http://purl.org/dc/dcmitype/StillImage" />
        <dc:title></dc:title>
      </cc:Work>
    </rdf:RDF>
  </metadata>
  <g
     inkscape:label="Layer 1"
     inkscape:groupmode="layer"
     id="layer1"
     transform="translate(-127.95256,-297.29736)">
    <g
       style="opacity:1;fill:#333333;fill-opacity:1"
       id="g14115"
       transform="matrix(1.8266606,0,0,1.8266606,147.18334,309.31209)">
      <g
         style="fill:#333333;fill-opacity:1"
         id="g14117">
        <g
           style="fill:#333333;fill-opacity:1"
           id="g14119">
          <path
             style="fill:#333333;fill-opacity:1"
             id="path14121"
             d="m 18.8,48 c 0,0 0,0 0,0 0.4,0 0.8,-0.3 1,-0.7 1.1,-3.1 2.9,-5.6 5.4,-7.4 0.1,1 0.9,1.8 1.9,1.8 0,0 0,0 0,0 l 1.8,0 0,3.9 c 0,1.3 1,2.3 2.3,2.3 0,0 0,0 0,0 l 5.6,0 c 1.3,0 2.3,-1.1 2.3,-2.3 l 0,-3.9 1.9,0 c 1,0 1.8,-0.8 1.9,-1.7 2.1,1.6 3.8,3.9 5.3,7.3 0.2,0.4 0.5,0.6 0.9,0.6 0,0 0,0 0.1,0 0.4,0 0.8,-0.3 0.9,-0.7 0.4,-1.4 0.6,-2.8 0.6,-4.2 0,-5.6 -2.9,-10.6 -7.8,-13.3 C 42.2,14.5 36.4,3.3 34.8,1.6 34.7,1.5 34.4,1.2 34,1.2 33.5,1.1 33.2,1.4 32.9,1.6 c -1.7,1.8 -7.4,12.8 -8.1,28.2 -4.8,2.9 -7.7,7.8 -7.7,13.4 0,1.4 0.2,2.8 0.6,4.2 0.3,0.3 0.7,0.6 1.1,0.6 z m 18.3,-2.5 c 0,0.2 -0.2,0.3 -0.3,0.3 l -5.6,0 0,0 c -0.2,0 -0.3,-0.2 -0.3,-0.3 l 0,-3.9 6.3,0 -0.1,3.9 z m 4,-5.9 -14,0.1 C 26.6,29.8 27,21.1 30.5,11.1 c 2.4,1.5 4.7,1.5 6.9,0 4.7,13 3.5,22.8 3.7,28.5 z m 7.7,3.2 c 0,0.3 0,0.5 0,0.8 -1.3,-2.2 -3.1,-4.6 -5.7,-6.2 0,-0.1 0,-0.1 0,-0.2 0,-3.3 0.1,-2.9 0.1,-5.4 3.5,2.6 5.6,6.6 5.6,11 z M 34,3.6 c 0.6,1 1.6,2.9 2.7,5.6 -1.8,1.4 -3.5,1.5 -5.5,0.1 C 32.3,6.5 33.4,4.5 34,3.6 Z M 24.9,32 c 0,2 0,2.6 0.1,5.5 -2.4,1.5 -4.4,3.5 -5.8,6 0,-0.2 0,-0.3 0,-0.5 0,-4.4 2.1,-8.4 5.7,-11 z"
             class="st0"
             inkscape:connector-curvature="0" />
        </g>
      </g>
      <g
         style="fill:#333333;fill-opacity:1"
         id="g14123">
        <g
           style="fill:#333333;fill-opacity:1"
           id="g14125">
          <path
             style="fill:#333333;fill-opacity:1"
             id="path14127"
             d="m 34,48.3 c -2.6,0 -4.7,2.2 -4.7,4.8 0,3.2 3.5,9.3 3.9,9.9 0.2,0.3 0.5,0.5 0.9,0.5 0,0 0,0 0,0 0.4,0 0.7,-0.2 0.9,-0.5 0.4,-0.7 3.9,-7.2 3.9,-10 0,-1.3 -0.5,-2.4 -1.4,-3.3 -1,-1 -2.2,-1.4 -3.5,-1.4 z m 0,12 c -1.2,-2.2 -2.7,-5.6 -2.7,-7.3 0,-1.5 1.2,-2.8 2.8,-2.8 0.7,0 1.4,0.3 1.9,0.8 0.5,0.5 0.8,1.2 0.8,1.9 -0.1,1.5 -1.5,4.8 -2.8,7.4 z"
             class="st0"
             inkscape:connector-curvature="0" />
        </g>
      </g>
      <g
         style="fill:#333333;fill-opacity:1"
         id="g14129">
        <g
           style="fill:#333333;fill-opacity:1"
           id="g14131">
          <path
             style="fill:#333333;fill-opacity:1"
             id="path14133"
             d="m 34,13.9 c -1.9,0 -3.5,1.6 -3.5,3.5 0,1.9 1.5,3.5 3.5,3.5 0,0 0,0 0,0 1.9,0 3.5,-1.6 3.5,-3.5 0,-1.9 -1.5,-3.5 -3.5,-3.5 z m 0,5 0,1 0,-1 c -0.8,0 -1.5,-0.7 -1.5,-1.5 0,-0.8 0.7,-1.5 1.5,-1.5 0.8,0 1.5,0.7 1.5,1.5 0,0.8 -0.7,1.5 -1.5,1.5 z"
             class="st0"
             inkscape:connector-curvature="0" />
        </g>
      </g>
      <g
         style="fill:#333333;fill-opacity:1"
         id="g14135">
        <g
           style="fill:#333333;fill-opacity:1"
           id="g14137">
          <path
             style="fill:#333333;fill-opacity:1"
             id="path14139"
             d="m 34,22.3 c -1.9,0 -3.5,1.6 -3.5,3.5 0,1.9 1.5,3.5 3.5,3.5 0,0 0,0 0,0 1.9,0 3.5,-1.6 3.5,-3.5 0,-2 -1.5,-3.5 -3.5,-3.5 z m 0,4.9 0,1 0,-1 c -0.8,0 -1.5,-0.7 -1.5,-1.5 0,-0.8 0.7,-1.5 1.5,-1.5 0.8,0 1.5,0.7 1.5,1.5 0,0.8 -0.7,1.5 -1.5,1.5 z"
             class="st0"
             inkscape:connector-curvature="0" />
        </g>
      </g>
      <g
         style="fill:#333333;fill-opacity:1"
         id="g14141">
        <g
           style="fill:#333333;fill-opacity:1"
           id="g14143">
          <path
             style="fill:#333333;fill-opacity:1"
             id="path14145"
             d="m 34,30.6 c -1.9,0 -3.5,1.6 -3.5,3.5 0,1.9 1.5,3.5 3.5,3.5 0,0 0,0 0,0 1.9,0 3.5,-1.6 3.5,-3.5 0,-1.9 -1.5,-3.5 -3.5,-3.5 z m 0,4.9 0,1 0,-1 c -0.8,0 -1.5,-0.7 -1.5,-1.5 0,-0.8 0.7,-1.5 1.5,-1.5 0.8,0 1.5,0.7 1.5,1.5 0,0.9 -0.7,1.5 -1.5,1.5 z"
             class="st0"
             inkscape:connector-curvature="0" />
        </g>
      </g>
      <g
         style="fill:#333333;fill-opacity:1"
         id="g14147">
        <g
           style="fill:#333333;fill-opacity:1"
           id="g14149">
          <path
             style="fill:#333333;fill-opacity:1"
             id="path14151"
             d="m 63.7,57.1 c 0.1,-0.5 0.2,-1 0.2,-1.6 0,-3.3 -2.7,-6.1 -6.1,-6.1 -2.1,0 -4,1.1 -5.1,2.8 -1,-0.6 -2.1,-1 -3.3,-1 -3.3,0 -6.1,2.7 -6.1,6.1 0,0.1 0,0.3 0,0.4 l 0,0.1 c 0,0.6 0.5,1 1.1,0.9 0.6,0 1,-0.5 0.9,-1.1 0,-0.1 0,-0.1 0,-0.2 0,0 0,-0.1 0,-0.1 0,-2.2 1.8,-4.1 4.1,-4.1 1.1,0 2.1,0.4 2.9,1.3 0.2,0.2 0.6,0.4 0.9,0.3 0.3,-0.1 0.6,-0.3 0.7,-0.6 0.6,-1.6 2.1,-2.7 3.8,-2.7 2.2,0 4.1,1.8 4.1,4.1 0,0.6 -0.1,1.2 -0.4,1.8 -0.1,0.3 -0.1,0.6 0,0.9 0.1,0.3 0.4,0.5 0.7,0.5 1.6,0.2 2.7,1.6 2.7,3.1 0,1.7 -1.4,3.2 -3.2,3.2 -6.8,0 -49.1,0 -55.7,0 C 4.4,65 3,63.6 3,61.8 3,60.2 4.2,58.9 5.7,58.7 6,58.7 6.3,58.5 6.4,58.2 6.5,57.9 6.6,57.6 6.4,57.3 6.2,56.7 6,56.1 6,55.5 c 0,-2.2 1.8,-4.1 4.1,-4.1 1.7,0 3.2,1.1 3.8,2.7 0.1,0.3 0.4,0.6 0.7,0.6 0.3,0.1 0.7,0 0.9,-0.3 0.8,-0.8 1.8,-1.3 2.9,-1.3 2.2,0 4.1,1.8 4.1,4.1 0,0 0,0.1 0,0.1 0,0.1 0,0.1 0,0.2 0,0.6 0.4,1 0.9,1 0.5,0 1,-0.4 1.1,-1 0,-0.1 0,-0.3 0,-0.4 0,-3.3 -2.7,-6.1 -6.1,-6.1 -1.2,0 -2.3,0.3 -3.3,1 -1.1,-1.7 -3,-2.8 -5.1,-2.8 -3.3,0 -6.1,2.7 -6.1,6.1 0,0.5 0.1,1 0.2,1.6 C 2.3,57.8 1,59.7 1,61.8 1,64.7 3.3,67 6.2,67 c 5.4,0 48.9,0 55.7,0 2.8,0 5.2,-2.3 5.2,-5.2 -0.1,-2.1 -1.4,-4 -3.4,-4.7 z"
             class="st0"
             inkscape:connector-curvature="0" />
        </g>
      </g>
    </g>
  </g>
</svg>
